<svg xmlns="http://www.w3.org/2000/svg" viewBox="0 0 64 64" width="64" height="64">
  <title>piloto cockpit favicon</title>
  <defs>
    <linearGradient id="cloudFav" x1="0%" y1="0%" x2="100%" y2="100%">
      <stop offset="0%" stop-color="#A855F7"/>
      <stop offset="100%" stop-color="#6B21A8"/>
    </linearGradient>
  </defs>

  <!-- fundo arredondado -->
  <rect width="64" height="64" rx="14" fill="#1E3A8A"/>

  <!-- letra "p" estilizada -->
  <path d="M 16 20 L 16 52 M 16 22 C 16 17, 22 15, 27 15 C 34 15, 38 19, 38 26 C 38 33, 34 37, 27 37 C 22 37, 16 35, 16 30"
        fill="none" stroke="#FFFFFF" stroke-width="5.5" stroke-linecap="round" stroke-linejoin="round"/>

  <!-- nuvem roxa no canto superior direito -->
  <g transform="translate(38, 8)">
    <path d="M 4 12 C 4 7, 9 5, 13 8 C 14 3, 21 3, 22 9 C 27 7, 30 12, 27 16 L 7 16 C 3 16, 3 12, 4 12 Z"
          fill="none" stroke="url(#cloudFav)" stroke-width="2.2" stroke-linejoin="round" stroke-linecap="round"/>
    <path d="M 22 16 C 27 16, 30 21, 26 24 L 10 24 C 7 24, 6 20, 9 19"
          fill="none" stroke="url(#cloudFav)" stroke-width="2.2" stroke-linejoin="round" stroke-linecap="round"/>
  </g>
</svg>
